<?xml version="1.0" encoding="UTF-8"?>
<!-- Generator: Adobe Illustrator 15.0.0, SVG Export Plug-In . SVG Version: 6.00 Build 0)  -->
<svg xmlns="http://www.w3.org/2000/svg" xmlns:xlink="http://www.w3.org/1999/xlink" version="1.1" id="Layer_1" x="0px" y="0px" width="100px" height="100px" viewBox="0 0 100 100" enable-background="new 0 0 100 100" xml:space="preserve">
<path fill="#456888" d="M81.34,49.781c0,19.656-15.934,35.586-35.586,35.586c-19.652,0-35.59-15.93-35.59-35.586  s15.938-35.59,35.59-35.59C65.406,14.191,81.34,30.125,81.34,49.781z"/>
<path fill="#5B8474" d="M89.789,50.373c0,21.381-17.324,38.701-38.699,38.701s-38.701-17.32-38.701-38.701  c0-21.367,17.326-38.695,38.701-38.695S89.789,29.006,89.789,50.373z"/>
<path fill="#5C826B" d="M89.789,50.373c0,21.381-17.324,38.701-38.699,38.701s-38.701-17.32-38.701-38.701  c0-21.367,17.326-38.695,38.701-38.695S89.789,29.006,89.789,50.373z"/>
<text transform="matrix(1.1869 0 0 1 4.499 63.5039)" fill="#FFFFFF" stroke="#4E6D59" font-family="'EstrangeloEdessa'" font-size="87.9133">ܛ</text>
</svg>