<?xml version="1.0" encoding="utf-8"?>
<!-- Generator: Adobe Illustrator 15.0.0, SVG Export Plug-In . SVG Version: 6.00 Build 0)  -->
<!DOCTYPE svg PUBLIC "-//W3C//DTD SVG 1.1//EN" "http://www.w3.org/Graphics/SVG/1.1/DTD/svg11.dtd">
<svg version="1.1" id="Layer_1" xmlns="http://www.w3.org/2000/svg" xmlns:xlink="http://www.w3.org/1999/xlink" x="0px" y="0px"
	 width="100px" height="100px" viewBox="0 0 100 100" enable-background="new 0 0 100 100" xml:space="preserve">
<path fill="#304D60" stroke="#FFFFFF" stroke-miterlimit="10" d="M97.932,50.627c0,22.799-18.483,41.29-41.289,41.29
	c-22.797,0-41.287-18.491-41.287-41.29c0-22.797,18.489-41.275,41.287-41.275C79.447,9.352,97.932,27.83,97.932,50.627z"/>
<path fill="#3D2A1A" stroke="#FFFFFF" stroke-miterlimit="10" d="M100.639,51.994c0,24.804-20.098,44.9-44.896,44.9
	c-24.799,0-44.898-20.098-44.898-44.9c0-24.787,20.1-44.891,44.898-44.891C80.541,7.104,100.639,27.207,100.639,51.994z"/>
<text transform="matrix(0.8217 0 0 1 -1 70.7686)" fill="#FFFFFF" font-family="'EastSyriacCtesiphon'" font-size="114">ܒ</text>
<text transform="matrix(0.8217 0 0 1 -1 70.7686)" fill="none" stroke="#3D2A1A" font-family="'EastSyriacCtesiphon'" font-size="114">ܒ</text>
<text transform="matrix(0.9245 0 0 1 35.5771 72.0928)" fill="#FFFFFF" font-family="'EastSyriacCtesiphon'" font-size="114">ܩ</text>
<text transform="matrix(0.9245 0 0 1 35.5771 72.0928)" fill="none" stroke="#3D2A1A" font-family="'EastSyriacCtesiphon'" font-size="114">ܩ</text>
</svg>
